<svg xmlns="http://www.w3.org/2000/svg" viewBox="0 0 135.35 25.97"><defs><style>.cls-1,.cls-2{fill:#fff;}.cls-2{font-size:13.39px;font-family:Axia-Bold, Axia;font-weight:700;}.cls-3{letter-spacing:-0.02em;}</style></defs><title>logo</title><g id="Layer_2" data-name="Layer 2"><g id="index"><path class="cls-1" d="M13.84,20.69h0a.83.83,0,0,0,.83-.83V19a.76.76,0,0,1,.76-.76h5a.76.76,0,1,0,0-1.53h-5a.76.76,0,0,1-.76-.76v-.29a.76.76,0,0,1,.76-.76H19a.76.76,0,0,0,.76-.76V7.31A.76.76,0,0,0,19,6.55H15.44a.76.76,0,0,1-.76-.76V5.61a.76.76,0,0,1,.76-.76h4.49a.76.76,0,1,0,0-1.53H15.44a.76.76,0,0,1-.76-.76V2.27a.76.76,0,0,0-.76-.76h-.14a.76.76,0,0,0-.76.76v.29a.76.76,0,0,1-.76.76H7.68a.76.76,0,1,0,0,1.53h4.56a.76.76,0,0,1,.76.76v.17a.76.76,0,0,1-.76.76H8.71a.76.76,0,0,0-.76.76v6.8a.76.76,0,0,0,.76.76h3.53a.76.76,0,0,1,.76.76v.29a.76.76,0,0,1-.76.76H7.16a.76.76,0,1,0,0,1.53h5.08A.76.76,0,0,1,13,19v.89A.83.83,0,0,0,13.84,20.69Zm-.84.81H5.93c-3,0-3.38-1.36-3.4-2.56,0-2,3.22-1.79,3.22-4.81,0-.05,0-.1,0-.15v-.31A.76.76,0,0,0,5,12.92H4.14a.76.76,0,0,1-.61-1.22C4.2,10.81,4.81,9.9,5.37,9a.77.77,0,0,0,.11-.41V8.19a.76.76,0,0,0-.76-.76h-4A.76.76,0,0,0,0,8.19v0A.76.76,0,0,0,.76,9h1.4A.76.76,0,0,1,2.8,10.2c-.61.87-1.3,1.75-2.07,2.65a.76.76,0,0,0-.18.49v.27a.76.76,0,0,0,.76.76H3.2c.5,0,.53.38.41.86-.25,1-2.72,1.62-2.72,3.21C.89,20.8,1.21,23,6.08,23H22a.53.53,0,0,0,.53-.53V22a.53.53,0,0,0-.53-.53h-7.3m0-12.77A.76.76,0,0,1,15.39,8h2a.76.76,0,0,1,.76.76v.5a.76.76,0,0,1-.76.76h-2a.76.76,0,0,1-.76-.76Zm0,3.39a.76.76,0,0,1,.76-.76h2a.76.76,0,0,1,.76.76v.52a.76.76,0,0,1-.76.76h-2a.76.76,0,0,1-.76-.76ZM9.54,8.74A.76.76,0,0,1,10.31,8h2a.76.76,0,0,1,.76.76v.5a.76.76,0,0,1-.76.76h-2a.76.76,0,0,1-.76-.76Zm2.74,4.68h-2a.76.76,0,0,1-.76-.76v-.52a.76.76,0,0,1,.76-.76h2a.76.76,0,0,1,.76.76v.52A.76.76,0,0,1,12.29,13.42Z"/><path class="cls-1" d="M3.85,5.6a.76.76,0,0,0,1.09,0l0,0A.76.76,0,0,0,5,4.53a30.32,30.32,0,0,0-2.6-2.4.77.77,0,0,0-1,0l0,0a.76.76,0,0,0,0,1.14A23.93,23.93,0,0,1,3.85,5.6Z"/><path class="cls-1" d="M72.43,10.58H85.7a.56.56,0,0,0,.56-.56V2.48a.56.56,0,0,0-.56-.56H72.43a.56.56,0,0,0-.56.56V10A.56.56,0,0,0,72.43,10.58Zm1.13-6.65a.56.56,0,0,1,.56-.56H84a.56.56,0,0,1,.56.56V5a.56.56,0,0,1-.56.56h-9.9A.56.56,0,0,1,73.56,5Zm0,3.58A.56.56,0,0,1,74.12,7H84a.56.56,0,0,1,.56.56v1a.56.56,0,0,1-.56.56h-9.9a.56.56,0,0,1-.56-.56Z"/><path class="cls-1" d="M45.85,22.41a.52.52,0,0,0,.59.51,9.12,9.12,0,0,0,5.12-2.5A18,18,0,0,0,56.44,13a.82.82,0,0,1,.06-.12.88.88,0,0,1,.09-.14l.08-.08.1-.08.11-.06.1,0,.12,0h.22l.12,0,.1,0,.11.06.1.08.08.08a.88.88,0,0,1,.09.14A.85.85,0,0,1,58,13a18,18,0,0,0,4.87,7.41c3.38,3,5.33,2.61,9.56,2.61H82.59c4.88,0,5.28-2.3,5.28-5.09V13a.56.56,0,0,0-.56-.56H70.71a.56.56,0,0,0-.56.56v4.09a1.3,1.3,0,0,0,1.3,1.3H82.79a.56.56,0,0,0,.56-.56v-.31a.56.56,0,0,0-.56-.56H71.84V14.53A.56.56,0,0,1,72.4,14H85.62a.56.56,0,0,1,.56.56v4c0,1.46-.33,3-3.44,3H69.87a8.06,8.06,0,0,1-5.57-2.14A17.41,17.41,0,0,1,59,10.47a.84.84,0,0,1,.81-1.06h6.93a.87.87,0,0,0,.87-.69.84.84,0,0,0-.82-1H58.67a.83.83,0,0,1-.83-.91A35.82,35.82,0,0,0,58,3V2.32a.84.84,0,0,0-.84-.84h-.1a.84.84,0,0,0-.84.84v1.1c0,1.24-.09,2.43-.22,3.59a.83.83,0,0,1-.83.73H47.56a.87.87,0,0,0-.87.69.84.84,0,0,0,.82,1h7.1a.84.84,0,0,1,.81,1.06,17.41,17.41,0,0,1-5.3,8.92,8.31,8.31,0,0,1-3.88,2,.51.51,0,0,0-.41.51Z"/><path class="cls-1" d="M70.15,16h1.69a0,0,0,0,1,0,0v3.66a.85.85,0,0,1-.85.85h0a.85.85,0,0,1-.85-.85V16a0,0,0,0,1,0,0Z"/><path class="cls-1" d="M30.24,21.18a28.84,28.84,0,0,1-5.69,1.91.44.44,0,0,1-.49-.23l-.2-.42a.43.43,0,0,1,.3-.61,24.56,24.56,0,0,0,5.4-1.79.42.42,0,0,1,.51.1l.32.36A.43.43,0,0,1,30.24,21.18Z"/><path class="cls-1" d="M44.23,22.47l-.28.43a.43.43,0,0,1-.52.16,41.2,41.2,0,0,0-5.93-2,.43.43,0,0,1-.25-.65L37.5,20a.44.44,0,0,1,.47-.18,46.53,46.53,0,0,1,6.07,2A.43.43,0,0,1,44.23,22.47Z"/><path class="cls-1" d="M35.35,6.54a.43.43,0,0,0,.54,0A4.61,4.61,0,0,0,37.2,5.12a3.07,3.07,0,0,0,.36-1.35A.45.45,0,0,1,38,3.35h2.13a.43.43,0,0,1,.43.43v.43a2.1,2.1,0,0,0,2.1,2.1h1.19a.43.43,0,0,0,.43-.43V5.4A.43.43,0,0,0,43.85,5H42.65c-.43,0-.62-.24-.62-.69V2.39A.43.43,0,0,0,41.6,2H36.52a.43.43,0,0,0-.43.43,5.3,5.3,0,0,1-.23,1.74l0,.07a4.41,4.41,0,0,1-1,1.28.43.43,0,0,0,0,.63Z"/><path class="cls-1" d="M41.53,19c.36.29.7.58,1,.88a.43.43,0,0,0,.54,0l.46-.32a.43.43,0,0,0,0-.68A39.27,39.27,0,0,0,39.67,16a.44.44,0,0,0-.47,0l-.39.24a.43.43,0,0,0,0,.71l.3.21a.43.43,0,0,1-.22.78c-2.23.18-4.46.32-6.69.43a.26.26,0,0,1-.09-.51,35.63,35.63,0,0,0,6.12-2.76.43.43,0,0,0,0-.74l-.43-.28a.43.43,0,0,0-.45,0c-1,.58-2,1.11-3,1.59l-.17,0-3.89.2a.18.18,0,0,1-.08-.34q1.19-.49,2.32-1.08a.43.43,0,0,0,0-.73l-.33-.24h1.15a.43.43,0,0,0,.43-.43v-.34a.37.37,0,0,0-.37-.37H30.39A.43.43,0,0,1,30,12v-.67c0-.24.19-.16.43-.16h4a.43.43,0,0,0,.43-.43v-.29A.43.43,0,0,0,34.4,10h-4c-.24,0-.43-.36-.43-.6s.19-.53.43-.53h3a.43.43,0,0,0,.43-.43V4.61a.43.43,0,0,0-.43-.43h-3a.43.43,0,1,1,0-.86H34a.43.43,0,0,0,.43-.43V2.58A.43.43,0,0,0,34,2.15H30a.78.78,0,0,0-.78-.76.75.75,0,0,0-.79.76h-4.1a.43.43,0,0,0-.43.43v.31a.43.43,0,0,0,.43.43H28a.43.43,0,1,1,0,.86H25a.43.43,0,0,0-.43.43V8.43a.43.43,0,0,0,.43.43h3c.24,0,.43.29.43.53s-.19.6-.43.6h-4a.43.43,0,0,0-.43.43v.29a.43.43,0,0,0,.43.43h4c.24,0,.43-.08.43.16V12a.43.43,0,0,1-.43.43H24.89a.37.37,0,0,0-.37.37v.34a.43.43,0,0,0,.43.43h5.7a.29.29,0,0,1,.13.55,27.47,27.47,0,0,1-3.3,1.43,3.26,3.26,0,0,1-.83.15.43.43,0,0,0-.4.52l.08.38a.43.43,0,0,0,.44.34l4.48-.21a.17.17,0,0,1,.07.33,30,30,0,0,1-4.42,1.36H26.1a.43.43,0,0,0-.43.53l.1.44a.43.43,0,0,0,.42.33q3.25-.07,7.08-.26a.43.43,0,0,1,.45.43v1.51c0,.5-.29.76-.84.76s-.86,0-1.31-.05a.43.43,0,0,0-.45.52l.1.46a.43.43,0,0,0,.42.33h1.71c1.29,0,2-.57,2-1.67v-2a.43.43,0,0,1,.4-.43l5.48-.37A.46.46,0,0,1,41.53,19Zm-13-11.09H26V7h2.53Zm0-1.79H26v-1h2.53Zm1.29-1h2.53v1H29.82Zm0,1.81h2.53v.93H29.82Z"/><path class="cls-1" d="M41.67,11.66a.43.43,0,0,1-.14-.73A7.1,7.1,0,0,0,43.4,8.6a.46.46,0,0,0,0-.2V7.67A.43.43,0,0,0,43,7.24H35.35a.43.43,0,0,0-.43.43v.48a.43.43,0,0,0,.43.43h.12a.43.43,0,0,1,.39.26,6,6,0,0,0,1.62,2.1.42.42,0,0,1-.14.73,22.24,22.24,0,0,1-2.31.66.43.43,0,0,0-.29.63l.3.52a.44.44,0,0,0,.48.21,17.91,17.91,0,0,0,3.79-1.33.4.4,0,0,1,.36,0,19.61,19.61,0,0,0,4,1.43.44.44,0,0,0,.49-.22l.29-.55a.43.43,0,0,0-.28-.62C43.29,12.16,42.43,11.92,41.67,11.66Zm-2.21-.94a5,5,0,0,1-2.29-2.15h4.72A7.23,7.23,0,0,1,39.46,10.72Z"/><text class="cls-2" transform="translate(90.74 11.22)">DCH<tspan class="cls-3" x="0" y="11.38">C</tspan><tspan x="6.95" y="11.38">onnect</tspan></text></g></g></svg>